<svg width="65" height="56" viewBox="0 0 65 56" fill="none" xmlns="http://www.w3.org/2000/svg">
<mask id="path-1-outside-1_1_252" maskUnits="userSpaceOnUse" x="-0.666992" y="1.03711" width="66" height="49" fill="black">
<rect fill="white" x="-0.666992" y="1.03711" width="66" height="49"/>
<path d="M62.8124 10.3901C54.807 14.3271 50.8044 18.9531 50.8044 24.2682C54.2165 24.6619 57.038 26.0726 59.269 28.5005C61.5 30.8627 62.6155 33.6187 62.6155 36.7683C62.6155 40.1148 61.5328 42.9363 59.3674 45.2329C57.2021 47.5296 54.4789 48.6779 51.1981 48.6779C47.5235 48.6779 44.341 47.2015 41.6507 44.2487C38.9604 41.2303 37.6152 37.5885 37.6152 33.3234C37.6152 20.528 44.7676 10.5213 59.0722 3.30338L62.8124 10.3901ZM26.7884 10.3901C18.7174 14.3271 14.6819 18.9531 14.6819 24.2682C18.1597 24.6619 21.014 26.0726 23.245 28.5005C25.476 30.8627 26.5915 33.6187 26.5915 36.7683C26.5915 40.1148 25.476 42.9363 23.245 45.2329C21.0796 47.5296 18.3565 48.6779 15.0756 48.6779C11.4011 48.6779 8.21862 47.2015 5.52831 44.2487C2.90361 41.2303 1.59126 37.5885 1.59126 33.3234C1.59126 20.528 8.71075 10.5213 22.9497 3.30338L26.7884 10.3901Z"/>
</mask>
<path d="M62.8124 10.3901L63.3684 11.5206L64.5316 10.9485L63.9266 9.80202L62.8124 10.3901ZM50.8044 24.2682H49.5445V25.391L50.66 25.5197L50.8044 24.2682ZM59.269 28.5005L58.3413 29.3529L58.3472 29.3593L58.3531 29.3655L59.269 28.5005ZM59.3674 45.2329L58.4508 44.3687L59.3674 45.2329ZM41.6507 44.2487L40.7102 45.087L40.7194 45.0972L41.6507 44.2487ZM59.0722 3.30338L60.1864 2.71533L59.609 1.62135L58.5046 2.1786L59.0722 3.30338ZM26.7884 10.3901L27.3407 11.5224L28.5223 10.946L27.8961 9.79002L26.7884 10.3901ZM14.6819 24.2682H13.4221V25.3934L14.5402 25.52L14.6819 24.2682ZM23.245 28.5005L22.3174 29.3529L22.3232 29.3593L22.3291 29.3655L23.245 28.5005ZM23.245 45.2329L22.3414 44.3551L22.3348 44.3618L22.3284 44.3687L23.245 45.2329ZM5.52831 44.2487L4.57761 45.0754L4.58719 45.0864L4.59702 45.0972L5.52831 44.2487ZM22.9497 3.30338L24.0575 2.70334L23.4736 1.62535L22.3801 2.17966L22.9497 3.30338ZM62.8124 10.3901L62.2564 9.25954C54.1316 13.2553 49.5445 18.2035 49.5445 24.2682H50.8044H52.0642C52.0642 19.7028 55.4825 15.3989 63.3684 11.5206L62.8124 10.3901ZM50.8044 24.2682L50.66 25.5197C53.7852 25.8803 56.3242 27.1578 58.3413 29.3529L59.269 28.5005L60.1967 27.648C57.7519 24.9875 54.6477 23.4434 50.9488 23.0166L50.8044 24.2682ZM59.269 28.5005L58.3531 29.3655C60.3709 31.5021 61.3556 33.9514 61.3556 36.7683H62.6155H63.8754C63.8754 33.2859 62.6291 30.2233 60.1849 27.6354L59.269 28.5005ZM62.6155 36.7683H61.3556C61.3556 39.8147 60.3816 42.3209 58.4508 44.3687L59.3674 45.2329L60.2841 46.0972C62.6841 43.5518 63.8754 40.4148 63.8754 36.7683H62.6155ZM59.3674 45.2329L58.4508 44.3687C56.5338 46.4018 54.1474 47.418 51.1981 47.418V48.6779V49.9377C54.8105 49.9377 57.8703 48.6573 60.2841 46.0972L59.3674 45.2329ZM51.1981 48.6779V47.418C47.9111 47.418 45.0568 46.1165 42.582 43.4002L41.6507 44.2487L40.7194 45.0972C43.6252 48.2865 47.1359 49.9377 51.1981 49.9377V48.6779ZM41.6507 44.2487L42.5912 43.4104C40.1186 40.6362 38.8751 37.2979 38.8751 33.3234H37.6152H36.3554C36.3554 37.8791 37.8022 41.8243 40.7102 45.087L41.6507 44.2487ZM37.6152 33.3234H38.8751C38.8751 21.1316 45.6318 11.4964 59.6397 4.42816L59.0722 3.30338L58.5046 2.1786C43.9033 9.54623 36.3554 19.9244 36.3554 33.3234H37.6152ZM59.0722 3.30338L57.958 3.89143L61.6982 10.9781L62.8124 10.3901L63.9266 9.80202L60.1864 2.71533L59.0722 3.30338ZM26.7884 10.3901L26.236 9.25775C18.0496 13.2511 13.4221 18.1981 13.4221 24.2682H14.6819H15.9418C15.9418 19.7082 19.3852 15.4031 27.3407 11.5224L26.7884 10.3901ZM14.6819 24.2682L14.5402 25.52C17.7366 25.8819 20.305 27.163 22.3174 29.3529L23.245 28.5005L24.1727 27.648C21.7231 24.9823 18.5828 23.4419 14.8237 23.0163L14.6819 24.2682ZM23.245 28.5005L22.3291 29.3655C24.347 31.5021 25.3317 33.9514 25.3317 36.7683H26.5915H27.8514C27.8514 33.2859 26.6051 30.2233 24.161 27.6354L23.245 28.5005ZM26.5915 36.7683H25.3317C25.3317 39.8034 24.3327 42.3051 22.3414 44.3551L23.245 45.2329L24.1487 46.1108C26.6193 43.5675 27.8514 40.4262 27.8514 36.7683H26.5915ZM23.245 45.2329L22.3284 44.3687C20.4114 46.4018 18.0249 47.418 15.0756 47.418V48.6779V49.9377C18.6881 49.9377 21.7479 48.6573 24.1617 46.0972L23.245 45.2329ZM15.0756 48.6779V47.418C11.7887 47.418 8.93443 46.1165 6.45959 43.4002L5.52831 44.2487L4.59702 45.0972C7.50281 48.2865 11.0135 49.9377 15.0756 49.9377V48.6779ZM5.52831 44.2487L6.479 43.422C4.06756 40.6488 2.85111 37.3065 2.85111 33.3234H1.59126H0.331402C0.331402 37.8705 1.73966 41.8117 4.57761 45.0754L5.52831 44.2487ZM1.59126 33.3234H2.85111C2.85111 21.1284 9.57853 11.4939 23.5194 4.42711L22.9497 3.30338L22.3801 2.17966C7.84297 9.54871 0.331402 19.9275 0.331402 33.3234H1.59126ZM22.9497 3.30338L21.842 3.90343L25.6806 10.9901L26.7884 10.3901L27.8961 9.79002L24.0575 2.70334L22.9497 3.30338Z" fill="#B8B8B8" mask="url(#path-1-outside-1_1_252)"/>
</svg>
